<svg width="73" height="73" viewBox="0 0 73 73" fill="none" xmlns="http://www.w3.org/2000/svg">
<rect width="72.0561" height="72.0561" transform="translate(0.944336)" fill="#98BD42" fill-opacity="0.1"/>
<path d="M22.8571 21.4925L19 25.3496H22.8812H26.7545V21.4925C26.7545 19.371 26.7464 17.6353 26.7304 17.6353C26.7223 17.6353 24.9786 19.371 22.8571 21.4925Z" fill="#98BD42"/>
<path d="M28.04 21.4281C28.04 23.5174 27.9999 25.3736 27.9597 25.5424C27.8713 25.9361 27.6624 26.2254 27.3088 26.4344C27.0436 26.587 26.8668 26.5951 23.0418 26.6192L19.04 26.6433V39.7174C19.04 52.6228 19.04 52.7915 19.2008 53.0567C19.2891 53.2013 19.474 53.3861 19.6186 53.4745C19.8838 53.6353 20.0525 53.6353 31.8972 53.6353C43.7418 53.6353 43.9106 53.6353 44.1758 53.4745C44.3204 53.3861 44.5052 53.2013 44.5936 53.0567C44.7463 52.7995 44.7543 52.6388 44.7543 47.4397V42.0879L43.9588 42.0478C42.8659 41.9915 42.432 41.7263 42.2633 40.971C42.1668 40.5611 42.1668 30.7094 42.2633 30.2995C42.432 29.5442 42.8659 29.279 43.9588 29.2228L44.7543 29.1826V23.8308C44.7543 18.6317 44.7463 18.471 44.5936 18.2138C44.5052 18.0692 44.3204 17.8844 44.1758 17.796C43.9186 17.6353 43.7499 17.6353 35.9793 17.6353H28.04V21.4281ZM39.29 29.3674C39.499 29.4799 39.6115 29.8736 39.6115 30.5406V31.1353H39.8847C40.0293 31.1353 40.2704 31.1754 40.415 31.2236C40.8731 31.3844 40.8972 31.5531 40.8972 34.3495C40.8972 37.146 40.8731 37.3147 40.415 37.4754C40.2704 37.5236 40.0293 37.5638 39.8847 37.5638H39.6115V38.8094C39.6115 40.2156 39.5231 40.5772 39.1775 40.6656C39.065 40.6897 38.8722 40.6897 38.7597 40.6656C38.4141 40.5772 38.3258 40.2156 38.3258 38.8094V37.5638H38.0525C37.5865 37.5638 37.2731 37.4031 37.1525 37.1138C36.9918 36.7281 36.9918 31.971 37.1525 31.5853C37.2731 31.296 37.5865 31.1353 38.0525 31.1353H38.3258V30.5406C38.3258 29.8978 38.4141 29.5442 38.6231 29.3835C38.7838 29.271 39.0811 29.2549 39.29 29.3674ZM23.8615 33.2245C24.0945 33.3531 24.1829 33.7549 24.1829 34.7192V35.6353H24.4561C24.9222 35.6353 25.2356 35.796 25.3561 36.0853C25.5168 36.471 25.5168 39.9424 25.3561 40.3281C25.2356 40.6174 24.9222 40.7781 24.4561 40.7781H24.1829V41.7022C24.1829 43.0361 23.982 43.3978 23.3311 43.237C23.0097 43.1486 22.8972 42.771 22.8972 41.7022V40.7781H22.624C22.1579 40.7781 21.8445 40.6174 21.724 40.3281C21.5633 39.9424 21.5633 36.471 21.724 36.0853C21.8445 35.796 22.1579 35.6353 22.624 35.6353H22.8972V34.7192C22.8972 33.771 22.9695 33.4174 23.1945 33.2406C23.3552 33.1281 23.6525 33.112 23.8615 33.2245ZM35.4329 33.8674C35.6981 34.004 35.7543 34.3978 35.7543 36.0049V37.5638H36.0356C36.4936 37.5638 36.8472 37.7486 36.9516 38.046C37.0963 38.4638 37.0722 45.1174 36.9275 45.471C36.807 45.7603 36.4936 45.921 36.0275 45.921H35.7543V46.8451C35.7543 48.179 35.5534 48.5406 34.9025 48.3799C34.5811 48.2915 34.4686 47.9138 34.4686 46.8451V45.921H34.1954C33.7293 45.921 33.4159 45.7603 33.2954 45.471C33.1508 45.1174 33.1266 38.4638 33.2713 38.046C33.3758 37.7486 33.7293 37.5638 34.1874 37.5638H34.4686V36.0049C34.4686 34.4299 34.5168 34.0763 34.7659 33.8835C34.9266 33.771 35.224 33.7549 35.4329 33.8674ZM27.7186 39.6531C27.9275 39.7656 28.04 40.1594 28.04 40.8263V41.421H28.3133C28.4579 41.421 28.699 41.4611 28.8436 41.5094C29.2695 41.662 29.3258 41.9192 29.3258 43.671C29.3258 45.4228 29.2695 45.6799 28.8436 45.8326C28.699 45.8808 28.4579 45.921 28.3133 45.921H28.04V48.1308C28.04 49.8745 28.0159 50.4049 27.9275 50.6219C27.799 50.9192 27.5418 51.0397 27.1883 50.9513C26.7945 50.8469 26.7543 50.5656 26.7543 48.1308V45.921H26.4811C26.015 45.921 25.7016 45.7603 25.5811 45.471C25.4204 45.0933 25.4204 42.2486 25.5811 41.871C25.7016 41.5817 26.015 41.421 26.4811 41.421H26.7543V40.8263C26.7543 40.1835 26.8427 39.8299 27.0516 39.6692C27.2124 39.5567 27.5097 39.5406 27.7186 39.6531ZM31.5758 42.2245C31.8409 42.3611 31.8972 42.7549 31.8972 44.362V45.921H32.1784C32.6365 45.921 32.99 46.1058 33.0945 46.4031C33.2231 46.7969 33.215 48.9906 33.0704 49.3281C32.9499 49.6254 32.6284 49.7781 32.1463 49.7781C31.8972 49.7781 31.8409 49.8103 31.7606 50.0192C31.5999 50.4451 30.9088 50.4451 30.7481 50.0192C30.6677 49.8103 30.6115 49.7781 30.3624 49.7781C29.8802 49.7781 29.5588 49.6254 29.4383 49.3281C29.2936 48.9906 29.2856 46.7969 29.4141 46.4031C29.5186 46.1058 29.8722 45.921 30.3302 45.921H30.6115V44.362C30.6115 42.787 30.6597 42.4335 30.9088 42.2406C31.0695 42.1281 31.3668 42.112 31.5758 42.2245Z" fill="#98BD42"/>
<path d="M51.5054 26.7718C51.2644 26.8601 50.967 27.0771 50.6376 27.4146L50.1233 27.9209H49.167C48.484 27.9209 48.1385 27.953 47.9858 28.0334C47.8653 28.0976 47.2465 28.6762 46.6037 29.3191L45.4385 30.4923H44.4581H43.4697V31.778V33.0637H44.9563C46.0974 33.0637 46.4992 33.0396 46.6679 32.9512C46.7885 32.8869 47.4072 32.3084 48.0501 31.6655L49.2153 30.4923H49.6653C50.1233 30.4923 50.1313 30.4923 50.6376 30.9985C51.2724 31.6414 51.7063 31.8101 52.6144 31.7619C53.6269 31.7137 54.3822 31.2316 54.8081 30.3637C55.0894 29.7932 55.1215 28.853 54.8804 28.2182C54.6474 27.5994 54.0769 27.0289 53.4742 26.8039C52.9278 26.603 52.0358 26.5869 51.5054 26.7718Z" fill="#98BD42"/>
<path d="M51.5054 33.2001C51.2644 33.2885 50.967 33.5055 50.6376 33.843L50.1233 34.3492H46.7965H43.4697V35.6349V36.9206H46.7965H50.1233L50.6376 37.4269C51.2724 38.0697 51.7063 38.2385 52.6144 38.1903C53.6269 38.1421 54.3822 37.6599 54.8081 36.7921C55.0894 36.2215 55.1215 35.2814 54.8804 34.6465C54.6474 34.0278 54.0769 33.4572 53.4742 33.2322C52.9278 33.0314 52.0358 33.0153 51.5054 33.2001Z" fill="#98BD42"/>
<path d="M43.4697 39.4922V40.7779H44.4581H45.4385L46.6037 41.9511C47.2465 42.594 47.8653 43.1726 47.9858 43.2369C48.1385 43.3172 48.484 43.3494 49.167 43.3494H50.1233L50.6376 43.8556C51.2724 44.4985 51.7063 44.6672 52.6144 44.619C53.6269 44.5708 54.3822 44.0886 54.8081 43.2208C55.0894 42.6502 55.1215 41.7101 54.8804 41.0752C54.5188 40.1029 53.5867 39.4922 52.4778 39.4922C51.6581 39.4922 51.2322 39.669 50.6376 40.2717C50.1313 40.7779 50.1233 40.7779 49.6653 40.7779H49.2153L48.0501 39.6047C47.4072 38.9619 46.7885 38.3833 46.6679 38.319C46.4992 38.2306 46.0974 38.2065 44.9563 38.2065H43.4697V39.4922Z" fill="#98BD42"/>
</svg>
