<svg width="36" height="35" viewBox="0 0 36 35" fill="none" xmlns="http://www.w3.org/2000/svg">
<circle cx="18.1321" cy="17.4998" r="16.7895" stroke="#98BD42" stroke-width="1.15789"/>
<mask id="mask0_6088_1533" style="mask-type:alpha" maskUnits="userSpaceOnUse" x="8" y="7" width="20" height="20">
<path d="M10.8947 11.7117C11.9605 11.7117 12.8245 10.8477 12.8245 9.78188C12.8245 8.71606 11.9605 7.85205 10.8947 7.85205C9.82886 7.85205 8.96484 8.71606 8.96484 9.78188C8.96484 10.8477 9.82886 11.7117 10.8947 11.7117Z" fill="white"/>
<path d="M8.96484 14.605H12.8245V26.6664H8.96484V14.605ZM16.6841 19.1883V26.6664H20.0613V19.912C20.0613 18.7059 20.785 17.7409 21.9912 17.7409C23.1973 17.7409 23.921 18.9471 23.921 19.912V26.6664H27.2982V19.1883C27.2982 17.7409 25.6096 14.605 21.9912 14.605C18.3727 14.605 16.6841 17.7409 16.6841 19.1883Z" fill="white"/>
</mask>
<g mask="url(#mask0_6088_1533)">
<path d="M6.55273 5.9209H29.7106V29.0788H6.55273V5.9209Z" fill="#98BD42"/>
</g>
</svg>
