<svg width="237" height="237" viewBox="0 0 237 237" fill="none" xmlns="http://www.w3.org/2000/svg">
<path d="M236.893 118.516C236.893 183.847 183.932 236.808 118.601 236.808C53.2698 236.808 0.308594 183.847 0.308594 118.516C0.308594 53.1855 53.2698 0.224365 118.601 0.224365C183.932 0.224365 236.893 53.1855 236.893 118.516Z" fill="#98BD42"/>
<path d="M197.53 130.118C196.725 130.118 195.983 129.917 195.305 129.514C194.648 129.112 194.118 128.582 193.715 127.925C193.313 127.247 193.111 126.505 193.111 125.7V123.951H197.308V125.509C197.308 125.615 197.339 125.71 197.403 125.795C197.488 125.858 197.583 125.89 197.689 125.89H211.39C211.496 125.89 211.581 125.858 211.644 125.795C211.729 125.71 211.772 125.615 211.772 125.509V121.154C211.772 121.048 211.729 120.963 211.644 120.899C211.581 120.836 211.496 120.804 211.39 120.804H197.53C196.725 120.804 195.983 120.603 195.305 120.2C194.648 119.797 194.118 119.268 193.715 118.611C193.313 117.932 193.111 117.18 193.111 116.353V111.649C193.111 110.843 193.313 110.112 193.715 109.455C194.118 108.777 194.648 108.237 195.305 107.834C195.983 107.431 196.725 107.23 197.53 107.23H211.581C212.386 107.23 213.117 107.431 213.774 107.834C214.452 108.237 214.993 108.777 215.396 109.455C215.798 110.112 216 110.843 216 111.649V113.397H211.772V111.839C211.772 111.733 211.729 111.649 211.644 111.585C211.581 111.5 211.496 111.458 211.39 111.458H197.689C197.583 111.458 197.488 111.5 197.403 111.585C197.339 111.649 197.308 111.733 197.308 111.839V116.195C197.308 116.301 197.339 116.385 197.403 116.449C197.488 116.512 197.583 116.544 197.689 116.544H211.581C212.386 116.544 213.117 116.746 213.774 117.148C214.452 117.551 214.993 118.091 215.396 118.769C215.798 119.426 216 120.168 216 120.995V125.7C216 126.505 215.798 127.247 215.396 127.925C214.993 128.582 214.452 129.112 213.774 129.514C213.117 129.917 212.386 130.118 211.581 130.118H197.53Z" fill="#17151A"/>
<path d="M167.907 130.118V107.23H172.135V116.544H177.508L185.328 107.23H189.905V108.438L181.322 118.674L189.937 128.91V130.118H185.328L177.508 120.804H172.135V130.118H167.907Z" fill="#17151A"/>
<path d="M146.154 130.118C145.349 130.118 144.607 129.917 143.929 129.514C143.272 129.112 142.742 128.582 142.339 127.925C141.937 127.247 141.735 126.505 141.735 125.7V111.649C141.735 110.843 141.937 110.112 142.339 109.455C142.742 108.777 143.272 108.237 143.929 107.834C144.607 107.431 145.349 107.23 146.154 107.23H164.56V111.458H147.044C146.705 111.458 146.43 111.553 146.218 111.744C146.027 111.935 145.932 112.21 145.932 112.571V124.778C145.932 125.117 146.027 125.392 146.218 125.604C146.43 125.795 146.705 125.89 147.044 125.89H164.56V130.118H146.154Z" fill="#17151A"/>
<path d="M119.765 130.118C118.96 130.118 118.218 129.917 117.54 129.514C116.883 129.112 116.353 128.582 115.951 127.925C115.548 127.247 115.347 126.505 115.347 125.7V111.649C115.347 110.843 115.548 110.112 115.951 109.455C116.353 108.777 116.883 108.237 117.54 107.834C118.218 107.431 118.96 107.23 119.765 107.23H133.816C134.622 107.23 135.353 107.431 136.01 107.834C136.688 108.237 137.228 108.777 137.631 109.455C138.034 110.112 138.235 110.843 138.235 111.649V125.7C138.235 126.505 138.034 127.247 137.631 127.925C137.228 128.582 136.688 129.112 136.01 129.514C135.353 129.917 134.622 130.118 133.816 130.118H119.765ZM119.924 125.89H133.594C133.7 125.89 133.795 125.858 133.88 125.795C133.965 125.71 134.007 125.615 134.007 125.509V111.839C134.007 111.733 133.965 111.649 133.88 111.585C133.795 111.5 133.7 111.458 133.594 111.458H119.924C119.818 111.458 119.723 111.5 119.638 111.585C119.575 111.649 119.543 111.733 119.543 111.839V125.509C119.543 125.615 119.575 125.71 119.638 125.795C119.723 125.858 119.818 125.89 119.924 125.89Z" fill="#17151A"/>
<path d="M99.4906 130.118V111.458H90.1445V107.23H113.033V111.458H103.719V130.118H99.4906Z" fill="#17151A"/>
<path d="M69.3494 130.118C68.544 130.118 67.8023 129.917 67.1241 129.514C66.4671 129.112 65.9373 128.582 65.5347 127.925C65.132 127.247 64.9307 126.505 64.9307 125.7V123.951H69.1268V125.509C69.1268 125.615 69.1586 125.71 69.2222 125.795C69.307 125.858 69.4024 125.89 69.5083 125.89H83.2095C83.3154 125.89 83.4002 125.858 83.4638 125.795C83.5486 125.71 83.591 125.615 83.591 125.509V121.154C83.591 121.048 83.5486 120.963 83.4638 120.899C83.4002 120.836 83.3154 120.804 83.2095 120.804H69.3494C68.544 120.804 67.8023 120.603 67.1241 120.2C66.4671 119.797 65.9373 119.268 65.5347 118.611C65.132 117.932 64.9307 117.18 64.9307 116.353V111.649C64.9307 110.843 65.132 110.112 65.5347 109.455C65.9373 108.777 66.4671 108.237 67.1241 107.834C67.8023 107.431 68.544 107.23 69.3494 107.23H83.4002C84.2055 107.23 84.9367 107.431 85.5937 107.834C86.2718 108.237 86.8123 108.777 87.2149 109.455C87.6176 110.112 87.8189 110.843 87.8189 111.649V113.397H83.591V111.839C83.591 111.733 83.5486 111.649 83.4638 111.585C83.4002 111.5 83.3154 111.458 83.2095 111.458H69.5083C69.4024 111.458 69.307 111.5 69.2222 111.585C69.1586 111.649 69.1268 111.733 69.1268 111.839V116.195C69.1268 116.301 69.1586 116.385 69.2222 116.449C69.307 116.512 69.4024 116.544 69.5083 116.544H83.4002C84.2055 116.544 84.9367 116.746 85.5937 117.148C86.2718 117.551 86.8123 118.091 87.2149 118.769C87.6176 119.426 87.8189 120.168 87.8189 120.995V125.7C87.8189 126.505 87.6176 127.247 87.2149 127.925C86.8123 128.582 86.2718 129.112 85.5937 129.514C84.9367 129.917 84.2055 130.118 83.4002 130.118H69.3494Z" fill="#17151A"/>
<path d="M48.0654 130.118V107.23H52.2298V130.118H48.0654Z" fill="#17151A"/>
<path d="M22 130.118V111.649C22 110.843 22.2013 110.112 22.604 109.455C23.0067 108.777 23.5365 108.237 24.1935 107.834C24.8716 107.431 25.6134 107.23 26.4187 107.23H40.4378C41.2431 107.23 41.9848 107.431 42.663 107.834C43.3412 108.237 43.8816 108.777 44.2843 109.455C44.6869 110.112 44.8883 110.843 44.8883 111.649V130.118H40.6603V122.425H26.1962V130.118H22ZM26.1962 118.229H40.6603V111.839C40.6603 111.733 40.6179 111.649 40.5331 111.585C40.4484 111.5 40.353 111.458 40.247 111.458H26.5777C26.4717 111.458 26.3763 111.5 26.2915 111.585C26.228 111.649 26.1962 111.733 26.1962 111.839V118.229Z" fill="#17151A"/>
</svg>
