<svg width="33" height="32" viewBox="0 0 33 32" fill="none" xmlns="http://www.w3.org/2000/svg">
<g filter="url(#filter0_b_1285_1756)">
<rect width="32" height="32" transform="translate(32.5 32) rotate(180)" fill="#98BD42"/>
<path d="M15.7929 22.7071C16.1834 23.0976 16.8166 23.0976 17.2071 22.7071L23.5711 16.3431C23.9616 15.9526 23.9616 15.3195 23.5711 14.9289C23.1805 14.5384 22.5474 14.5384 22.1569 14.9289L16.5 20.5858L10.8431 14.9289C10.4526 14.5384 9.81946 14.5384 9.42893 14.9289C9.03841 15.3195 9.03841 15.9526 9.42893 16.3431L15.7929 22.7071ZM15.5 10L15.5 22L17.5 22L17.5 10L15.5 10Z" fill="#010101"/>
</g>
<defs>
<filter id="filter0_b_1285_1756" x="-79.5" y="-80" width="192" height="192" filterUnits="userSpaceOnUse" color-interpolation-filters="sRGB">
<feFlood flood-opacity="0" result="BackgroundImageFix"/>
<feGaussianBlur in="BackgroundImageFix" stdDeviation="40"/>
<feComposite in2="SourceAlpha" operator="in" result="effect1_backgroundBlur_1285_1756"/>
<feBlend mode="normal" in="SourceGraphic" in2="effect1_backgroundBlur_1285_1756" result="shape"/>
</filter>
</defs>
</svg>
