<svg width="73" height="73" viewBox="0 0 73 73" fill="none" xmlns="http://www.w3.org/2000/svg">
<rect width="72.0561" height="72.0561" transform="translate(0.944336 0.000244141)" fill="#98BD42" fill-opacity="0.1"/>
<path fill-rule="evenodd" clip-rule="evenodd" d="M42.2931 20.0572C41.5434 20.169 41.3571 20.3042 40.9919 21.0017C40.241 22.4358 39.1142 23.1436 37.442 23.2315L36.6403 23.2736L36.3196 23.5995C35.7391 24.1895 34.8345 26.0144 34.8385 26.5877C34.8399 26.7928 34.9285 27.0207 35.1217 27.316C35.8553 28.437 35.9199 30.0278 35.2802 31.2171C35.1745 31.4137 35.066 31.6507 35.0392 31.7436C34.8859 32.2745 36.2922 34.6195 37.0251 35.0551C37.1978 35.1577 37.427 35.2077 37.7259 35.2079C38.9973 35.2087 40.249 35.9064 41.0032 37.0346C41.451 37.7046 41.6688 37.7889 43.0943 37.8442C44.2278 37.8881 45.3725 37.7851 45.664 37.6129C45.7567 37.5582 45.9709 37.2841 46.1398 37.0039C46.3088 36.7237 46.6423 36.3145 46.8811 36.0944C47.6184 35.4148 48.2974 35.1453 49.4885 35.0595C50.1999 35.0082 50.3388 34.9748 50.5194 34.8112C51.1089 34.277 52.1453 32.4826 52.2157 31.874C52.2497 31.5808 52.2133 31.4759 51.9294 31.0484C51.4655 30.3496 51.2719 29.7274 51.2719 28.9345C51.2719 28.1382 51.4159 27.6321 51.8802 26.796C52.0748 26.4455 52.234 26.0645 52.234 25.9491C52.234 25.482 51.0348 23.447 50.5936 23.1653C50.4814 23.0937 50.1281 23.0594 49.468 23.0561C48.3041 23.0503 47.6766 22.8745 46.9438 22.3487C46.4141 21.9687 46.1073 21.5955 45.6927 20.8269C45.2989 20.0971 45.1586 20.0339 43.8658 20.0039C43.2871 19.9906 42.5794 20.0146 42.2931 20.0572ZM44.4972 24.0727C46.3356 24.3919 47.9395 25.8415 48.4318 27.6285C48.5234 27.9614 48.5712 28.4191 48.5704 28.9569C48.5695 29.6424 48.5334 29.8801 48.3513 30.4017C48.0745 31.1946 47.6774 31.8318 47.1233 32.3718C46.1178 33.3519 44.9634 33.8152 43.5338 33.8123C42.6259 33.8105 42.1984 33.7136 41.3304 33.313C40.4585 32.9106 39.5116 32.0193 39.0686 31.1839C38.2049 29.5552 38.3058 27.6847 39.3386 26.1797C40.1221 25.038 41.3423 24.2652 42.7132 24.0426C43.3377 23.9411 43.7828 23.9486 44.4972 24.0727ZM30.0661 36.7298C29.427 36.8448 28.6267 37.0971 28.1476 37.3345C27.113 37.8472 26.008 38.8208 25.3089 39.8355L24.8935 40.4387L24.9142 44.4067L24.935 48.3749L25.1079 48.3989C25.2114 48.4132 25.492 48.282 25.8064 48.0722C27.2069 47.1377 28.9465 46.616 30.6578 46.6173C31.6843 46.6181 32.1123 46.6938 33.9365 47.1975C36.779 47.9822 38.9252 48.3363 40.8334 48.3352C42.0671 48.3346 42.6035 48.2666 43.6289 47.9809C44.9981 47.5994 47.0908 46.4455 49.1298 44.9477C50.5232 43.9241 52.2085 42.3113 54.0379 40.2508C54.9432 39.2312 55 39.1475 55 38.8337C55 38.5756 54.9497 38.4491 54.7769 38.2733C54.1616 37.6474 52.9824 37.4301 52.0661 37.7738C51.9518 37.8167 51.216 38.2614 50.431 38.7619C49.646 39.2625 48.6933 39.8239 48.3139 40.0094C47.0177 40.6433 45.5391 40.9906 44.1358 40.9906C43.6066 40.9906 43.3288 41.0221 43.2749 41.0883C43.2311 41.142 43.1773 41.4155 43.1554 41.6961C43.0552 42.9784 42.0214 43.905 40.703 43.8941C40.3259 43.8909 39.8319 43.7393 37.8128 43.0069C35.2576 42.0802 35.1371 42.015 35.1371 41.5606C35.1371 41.3235 35.4083 41.0687 35.6607 41.0687C35.7515 41.0687 36.8843 41.4555 38.1779 41.9283C39.4715 42.401 40.6211 42.7878 40.7324 42.7878C41.5222 42.7878 42.1829 41.9108 41.9709 41.1438C41.8448 40.687 41.5361 40.413 40.8093 40.1123C40.4566 39.9664 39.3201 39.3869 38.2839 38.8246C37.2476 38.2623 36.0897 37.6771 35.7105 37.5241C33.7546 36.735 31.6682 36.4415 30.0661 36.7298ZM18.1248 39.3671C18.0144 39.5206 18 40.2432 18 45.6096C18 51.2739 18.0094 51.6897 18.1403 51.8454C18.279 52.0103 18.3106 52.012 20.8438 51.9908L23.4071 51.9693L23.5084 51.774C23.5874 51.6216 23.61 50.2545 23.6109 45.5597C23.612 40.2372 23.5977 39.5206 23.4873 39.3671C23.3628 39.1937 23.3569 39.1933 20.8061 39.1933C18.2552 39.1933 18.2493 39.1937 18.1248 39.3671Z" fill="#98BD42"/>
</svg>
