<svg width="73" height="73" viewBox="0 0 73 73" fill="none" xmlns="http://www.w3.org/2000/svg">
<rect width="72.0561" height="72.0561" fill="#98BD42" fill-opacity="0.1"/>
<path fill-rule="evenodd" clip-rule="evenodd" d="M29.5606 18.3474C28.7772 18.8265 28.3266 19.7202 28.4393 20.5723L28.5274 21.24L25.756 23.3191L22.9843 25.3983L22.3287 25.1234C21.1988 24.6498 19.9366 25.1401 19.4077 26.2582C19.0154 27.0873 19.0375 27.8138 19.4771 28.5367C20.1422 29.6312 21.3651 29.9798 22.5538 29.414C23.4152 29.0039 23.8231 28.3044 23.8235 27.2366L23.824 26.3461L26.5609 24.2926C28.9178 22.5243 29.3495 22.2667 29.6677 22.4376C30.2116 22.7295 31.5881 22.679 32.0563 22.3501C32.4425 22.0787 32.611 22.1515 35.3451 23.7673C38.0891 25.3892 38.2268 25.4984 38.2275 26.0542C38.229 27.29 39.4176 28.4909 40.6392 28.4909C41.8936 28.4909 43.1081 27.2345 43.015 26.0336C42.9693 25.4443 43.0356 25.3869 45.635 23.762C48.1125 22.2131 48.3293 22.1139 48.687 22.3654C48.8989 22.5143 49.4796 22.636 49.9775 22.636C50.7561 22.636 50.9689 22.5493 51.5025 22.0141C52.2889 21.2253 52.4624 20.5491 52.1267 19.5828C51.6281 18.1475 49.9608 17.5604 48.6538 18.3597C47.9759 18.7742 47.4525 19.8051 47.5408 20.5509C47.5926 20.9868 47.3478 21.1884 44.9447 22.6887L42.2913 24.3451L41.6693 24.049C40.8886 23.6774 40.4651 23.6767 39.5464 24.0454L38.8173 24.3382L35.9508 22.644C33.4048 21.1393 33.0936 20.902 33.166 20.5215C33.2935 19.8529 32.7455 18.7741 32.0678 18.3597C31.2914 17.8849 30.3246 17.88 29.5606 18.3474ZM28.9505 34.8745L28.9525 43.018L29.4602 42.3665C30.3471 41.2282 31.2324 40.5107 32.5102 39.8944L33.7522 39.2952L33.7628 33.0131L33.7732 26.731H31.3608H28.9485L28.9505 34.8745ZM47.5052 36.0378V45.3447H49.9175H52.3299V36.0378V26.731H49.9175H47.5052V36.0378ZM19.6701 38.923V45.3447H22.0825H24.4948V38.923V32.5012H22.0825H19.6701V38.923ZM38.2372 35.8982L38.2478 39.2952L39.5022 39.8948C40.6331 40.4353 41.9441 41.5411 42.7635 42.6457C43.0103 42.9783 43.0404 42.459 43.0456 37.7596L43.0515 32.5012H40.6392H38.2268L38.2372 35.8982ZM33.791 40.4029C32.7448 40.7435 31.2302 41.7948 30.5588 42.6466C30.2706 43.012 29.8132 43.7895 29.5421 44.3743C28.8816 45.7996 28.8573 48.0608 29.4855 49.6718C30.0658 51.1603 31.451 52.628 32.9951 53.3906C34.1274 53.9497 34.3752 54 35.9961 54C37.5114 54 37.9093 53.9311 38.792 53.5159C39.358 53.2495 40.1339 52.7561 40.5163 52.4193L41.2115 51.8071L40.8092 51.3773L40.4067 50.9477L39.5824 51.5789C37.0698 53.5034 33.4202 53.0967 31.5148 50.6801C28.5387 46.9052 31.2187 41.3811 36.0262 41.3811C38.7314 41.3811 41.1612 43.4005 41.6347 46.0427L41.7433 46.6476H40.9129C40.4562 46.6476 40.0825 46.6997 40.0825 46.7632C40.0825 46.8269 40.5969 47.5755 41.2256 48.4269L42.3687 49.975L43.522 48.4509C44.1562 47.6127 44.6391 46.8639 44.5947 46.7872C44.5504 46.7105 44.1867 46.6476 43.7864 46.6476C43.1436 46.6476 43.0454 46.5879 42.9456 46.1357C42.5154 44.1869 41.9478 43.1469 40.6486 41.9281C39.2881 40.6514 38.304 40.2607 36.2784 40.1928C35.1919 40.1563 34.3227 40.2298 33.791 40.4029ZM35.4433 45.0623V47.1997L34.4691 47.6905C33.9332 47.9606 33.4678 48.2056 33.4347 48.2348C33.4017 48.2642 33.5082 48.5473 33.6715 48.8639L33.9682 49.4395L35.2626 48.7858L36.5567 48.132V45.5284V42.9249H36H35.4433V45.0623ZM18 47.1159V47.7706L22.9639 47.7209L27.9278 47.6714L27.9859 47.0664L28.0442 46.4615H23.022H18V47.1159ZM45.8351 47.113V47.7644H49.9175H54V47.113V46.4615H49.9175H45.8351V47.113Z" fill="#98BD42"/>
</svg>
