<svg width="194" height="24" viewBox="0 0 194 24" fill="none" xmlns="http://www.w3.org/2000/svg">
<path d="M175.53 23.1182C174.725 23.1182 173.983 22.9169 173.305 22.5142C172.648 22.1116 172.118 21.5818 171.715 20.9248C171.313 20.2466 171.111 19.5049 171.111 18.6995V16.9511H175.308V18.5088C175.308 18.6148 175.339 18.7101 175.403 18.7949C175.488 18.8585 175.583 18.8903 175.689 18.8903H189.39C189.496 18.8903 189.581 18.8585 189.644 18.7949C189.729 18.7101 189.772 18.6148 189.772 18.5088V14.1537C189.772 14.0477 189.729 13.9629 189.644 13.8994C189.581 13.8358 189.496 13.804 189.39 13.804H175.53C174.725 13.804 173.983 13.6027 173.305 13.2C172.648 12.7973 172.118 12.2675 171.715 11.6105C171.313 10.9324 171.111 10.18 171.111 9.35349V4.64869C171.111 3.84336 171.313 3.11221 171.715 2.45523C172.118 1.77706 172.648 1.23664 173.305 0.833976C173.983 0.431312 174.725 0.22998 175.53 0.22998H189.581C190.386 0.22998 191.117 0.431312 191.774 0.833976C192.452 1.23664 192.993 1.77706 193.396 2.45523C193.798 3.11221 194 3.84336 194 4.64869V6.39709H189.772V4.83942C189.772 4.73346 189.729 4.64868 189.644 4.58511C189.581 4.50034 189.496 4.45795 189.39 4.45795H175.689C175.583 4.45795 175.488 4.50034 175.403 4.58511C175.339 4.64868 175.308 4.73346 175.308 4.83942V9.19455C175.308 9.30051 175.339 9.38528 175.403 9.44886C175.488 9.51244 175.583 9.54423 175.689 9.54423H189.581C190.386 9.54423 191.117 9.74556 191.774 10.1482C192.452 10.5509 192.993 11.0913 193.396 11.7695C193.798 12.4265 194 13.1682 194 13.9947V18.6995C194 19.5049 193.798 20.2466 193.396 20.9248C192.993 21.5818 192.452 22.1116 191.774 22.5142C191.117 22.9169 190.386 23.1182 189.581 23.1182H175.53Z" fill="#17151A"/>
<path d="M145.907 23.1182V0.22998H150.135V9.54423H155.508L163.328 0.22998H167.905V1.43797L159.322 11.6741L167.937 21.9102V23.1182H163.328L155.508 13.804H150.135V23.1182H145.907Z" fill="#17151A"/>
<path d="M124.154 23.1182C123.349 23.1182 122.607 22.9169 121.929 22.5142C121.272 22.1116 120.742 21.5818 120.339 20.9248C119.937 20.2466 119.735 19.5049 119.735 18.6995V4.64869C119.735 3.84336 119.937 3.11221 120.339 2.45523C120.742 1.77706 121.272 1.23664 121.929 0.833976C122.607 0.431312 123.349 0.22998 124.154 0.22998H142.56V4.45795H125.044C124.705 4.45795 124.43 4.55332 124.218 4.74405C124.027 4.93479 123.932 5.2103 123.932 5.57057V17.7776C123.932 18.1167 124.027 18.3922 124.218 18.6042C124.43 18.7949 124.705 18.8903 125.044 18.8903H142.56V23.1182H124.154Z" fill="#17151A"/>
<path d="M97.7654 23.1182C96.9601 23.1182 96.2183 22.9169 95.5401 22.5142C94.8832 22.1116 94.3533 21.5818 93.9507 20.9248C93.548 20.2466 93.3467 19.5049 93.3467 18.6995V4.64869C93.3467 3.84336 93.548 3.11221 93.9507 2.45523C94.3533 1.77706 94.8832 1.23664 95.5401 0.833976C96.2183 0.431312 96.9601 0.22998 97.7654 0.22998H111.816C112.622 0.22998 113.353 0.431312 114.01 0.833976C114.688 1.23664 115.228 1.77706 115.631 2.45523C116.034 3.11221 116.235 3.84336 116.235 4.64869V18.6995C116.235 19.5049 116.034 20.2466 115.631 20.9248C115.228 21.5818 114.688 22.1116 114.01 22.5142C113.353 22.9169 112.622 23.1182 111.816 23.1182H97.7654ZM97.9243 18.8903H111.594C111.7 18.8903 111.795 18.8585 111.88 18.7949C111.965 18.7101 112.007 18.6148 112.007 18.5088V4.83942C112.007 4.73346 111.965 4.64868 111.88 4.58511C111.795 4.50034 111.7 4.45795 111.594 4.45795H97.9243C97.8184 4.45795 97.723 4.50034 97.6382 4.58511C97.5747 4.64868 97.5429 4.73346 97.5429 4.83942V18.5088C97.5429 18.6148 97.5747 18.7101 97.6382 18.7949C97.723 18.8585 97.8184 18.8903 97.9243 18.8903Z" fill="#17151A"/>
<path d="M77.4906 23.1182V4.45795H68.1445V0.22998H91.0328V4.45795H81.7185V23.1182H77.4906Z" fill="#17151A"/>
<path d="M47.3494 23.1182C46.544 23.1182 45.8023 22.9169 45.1241 22.5142C44.4671 22.1116 43.9373 21.5818 43.5347 20.9248C43.132 20.2466 42.9307 19.5049 42.9307 18.6995V16.9511H47.1268V18.5088C47.1268 18.6148 47.1586 18.7101 47.2222 18.7949C47.307 18.8585 47.4024 18.8903 47.5083 18.8903H61.2095C61.3154 18.8903 61.4002 18.8585 61.4638 18.7949C61.5486 18.7101 61.591 18.6148 61.591 18.5088V14.1537C61.591 14.0477 61.5486 13.9629 61.4638 13.8994C61.4002 13.8358 61.3154 13.804 61.2095 13.804H47.3494C46.544 13.804 45.8023 13.6027 45.1241 13.2C44.4671 12.7973 43.9373 12.2675 43.5347 11.6105C43.132 10.9324 42.9307 10.18 42.9307 9.35349V4.64869C42.9307 3.84336 43.132 3.11221 43.5347 2.45523C43.9373 1.77706 44.4671 1.23664 45.1241 0.833976C45.8023 0.431312 46.544 0.22998 47.3494 0.22998H61.4002C62.2055 0.22998 62.9367 0.431312 63.5937 0.833976C64.2718 1.23664 64.8123 1.77706 65.2149 2.45523C65.6176 3.11221 65.8189 3.84336 65.8189 4.64869V6.39709H61.591V4.83942C61.591 4.73346 61.5486 4.64868 61.4638 4.58511C61.4002 4.50034 61.3154 4.45795 61.2095 4.45795H47.5083C47.4024 4.45795 47.307 4.50034 47.2222 4.58511C47.1586 4.64868 47.1268 4.73346 47.1268 4.83942V9.19455C47.1268 9.30051 47.1586 9.38528 47.2222 9.44886C47.307 9.51244 47.4024 9.54423 47.5083 9.54423H61.4002C62.2055 9.54423 62.9367 9.74556 63.5937 10.1482C64.2718 10.5509 64.8123 11.0913 65.2149 11.7695C65.6176 12.4265 65.8189 13.1682 65.8189 13.9947V18.6995C65.8189 19.5049 65.6176 20.2466 65.2149 20.9248C64.8123 21.5818 64.2718 22.1116 63.5937 22.5142C62.9367 22.9169 62.2055 23.1182 61.4002 23.1182H47.3494Z" fill="#17151A"/>
<path d="M26.0654 23.1182V0.22998H30.2298V23.1182H26.0654Z" fill="#17151A"/>
<path d="M0 23.1182V4.64869C0 3.84336 0.201332 3.11221 0.603996 2.45523C1.00666 1.77706 1.53648 1.23664 2.19346 0.833976C2.87163 0.431312 3.61338 0.22998 4.4187 0.22998H18.4378C19.2431 0.22998 19.9848 0.431312 20.663 0.833976C21.3412 1.23664 21.8816 1.77706 22.2843 2.45523C22.6869 3.11221 22.8883 3.84336 22.8883 4.64869V23.1182H18.6603V15.4252H4.19618V23.1182H0ZM4.19618 11.2291H18.6603V4.83942C18.6603 4.73346 18.6179 4.64868 18.5331 4.58511C18.4484 4.50034 18.353 4.45795 18.247 4.45795H4.57765C4.47169 4.45795 4.37632 4.50034 4.29155 4.58511C4.22797 4.64868 4.19618 4.73346 4.19618 4.83942V11.2291Z" fill="#17151A"/>
</svg>
