<svg width="35" height="35" viewBox="0 0 35 35" fill="none" xmlns="http://www.w3.org/2000/svg">
<circle cx="17.4993" cy="17.4998" r="16.7895" stroke="#98BD42" stroke-width="1.15789"/>
<path d="M20.3939 17.5002C20.3939 18.0727 20.2241 18.6323 19.9061 19.1084C19.588 19.5844 19.1359 19.9554 18.6069 20.1745C18.078 20.3936 17.496 20.451 16.9344 20.3393C16.3729 20.2276 15.8571 19.9519 15.4523 19.547C15.0475 19.1422 14.7718 18.6264 14.6601 18.0649C14.5484 17.5034 14.6057 16.9213 14.8248 16.3924C15.0439 15.8634 15.4149 15.4113 15.8909 15.0933C16.367 14.7752 16.9267 14.6054 17.4992 14.6054C18.2662 14.6078 19.0011 14.9135 19.5434 15.4559C20.0858 15.9983 20.3915 16.7332 20.3939 17.5002V17.5002ZM26.5452 13.5199V21.4804C26.5452 22.8239 26.0115 24.1125 25.0615 25.0625C24.1115 26.0125 22.823 26.5462 21.4794 26.5462H13.5189C12.1754 26.5462 10.8869 26.0125 9.93686 25.0625C8.98684 24.1125 8.45312 22.8239 8.45312 21.4804V13.5199C8.45312 12.1764 8.98684 10.8879 9.93686 9.93784C10.8869 8.98782 12.1754 8.4541 13.5189 8.4541H21.4794C22.823 8.4541 24.1115 8.98782 25.0615 9.93784C26.0115 10.8879 26.5452 12.1764 26.5452 13.5199V13.5199ZM21.8413 17.5002C21.8413 16.6414 21.5866 15.8019 21.1095 15.0878C20.6324 14.3738 19.9542 13.8172 19.1608 13.4886C18.3674 13.1599 17.4944 13.0739 16.6521 13.2415C15.8098 13.409 15.0361 13.8226 14.4288 14.4298C13.8216 15.0371 13.408 15.8108 13.2405 16.6531C13.073 17.4953 13.159 18.3684 13.4876 19.1618C13.8162 19.9552 14.3728 20.6334 15.0868 21.1105C15.8009 21.5876 16.6404 21.8423 17.4992 21.8423C18.6508 21.8423 19.7552 21.3848 20.5695 20.5705C21.3838 19.7562 21.8413 18.6518 21.8413 17.5002ZM23.2887 12.7962C23.2887 12.5815 23.225 12.3716 23.1057 12.1931C22.9864 12.0146 22.8169 11.8755 22.6185 11.7933C22.4202 11.7112 22.2019 11.6897 21.9914 11.7315C21.7808 11.7734 21.5874 11.8768 21.4355 12.0286C21.2837 12.1804 21.1803 12.3739 21.1385 12.5844C21.0966 12.795 21.1181 13.0133 21.2002 13.2116C21.2824 13.41 21.4215 13.5795 21.6 13.6988C21.7786 13.8181 21.9884 13.8817 22.2031 13.8817C22.491 13.8817 22.7671 13.7674 22.9707 13.5638C23.1743 13.3602 23.2887 13.0841 23.2887 12.7962Z" fill="#98BD42"/>
</svg>
