<svg width="192" height="24" viewBox="0 0 192 24" fill="none" xmlns="http://www.w3.org/2000/svg">
<path d="M173.721 23.4853C172.924 23.4853 172.19 23.286 171.518 22.8875C170.868 22.489 170.344 21.9647 169.945 21.3145C169.547 20.6433 169.348 19.9092 169.348 19.1122V17.3818H173.501V18.9234C173.501 19.0283 173.532 19.1226 173.595 19.2065C173.679 19.2695 173.773 19.3009 173.878 19.3009H187.438C187.543 19.3009 187.627 19.2695 187.69 19.2065C187.774 19.1226 187.816 19.0283 187.816 18.9234V14.6132C187.816 14.5083 187.774 14.4244 187.69 14.3615C187.627 14.2985 187.543 14.2671 187.438 14.2671H173.721C172.924 14.2671 172.19 14.0678 171.518 13.6693C170.868 13.2708 170.344 12.7464 169.945 12.0962C169.547 11.4251 169.348 10.6805 169.348 9.86246V5.20616C169.348 4.40913 169.547 3.68552 169.945 3.03531C170.344 2.36414 170.868 1.82929 171.518 1.43078C172.19 1.03226 172.924 0.833008 173.721 0.833008H187.627C188.424 0.833008 189.147 1.03226 189.798 1.43078C190.469 1.82929 191.004 2.36414 191.402 3.03531C191.801 3.68552 192 4.40913 192 5.20616V6.93654H187.816V5.39493C187.816 5.29006 187.774 5.20616 187.69 5.14324C187.627 5.05934 187.543 5.01739 187.438 5.01739H173.878C173.773 5.01739 173.679 5.05934 173.595 5.14324C173.532 5.20616 173.501 5.29006 173.501 5.39493V9.70516C173.501 9.81003 173.532 9.89393 173.595 9.95685C173.679 10.0198 173.773 10.0512 173.878 10.0512H187.627C188.424 10.0512 189.147 10.2505 189.798 10.649C190.469 11.0475 191.004 11.5824 191.402 12.2535C191.801 12.9037 192 13.6378 192 14.4558V19.1122C192 19.9092 191.801 20.6433 191.402 21.3145C191.004 21.9647 190.469 22.489 189.798 22.8875C189.147 23.286 188.424 23.4853 187.627 23.4853H173.721Z" fill="white"/>
<path d="M144.402 23.4853V0.833008H148.587V10.0512H153.904L161.643 0.833008H166.174V2.02855L157.679 12.1592L166.205 22.2898V23.4853H161.643L153.904 14.2671H148.587V23.4853H144.402Z" fill="white"/>
<path d="M122.875 23.4853C122.078 23.4853 121.344 23.286 120.673 22.8875C120.023 22.489 119.498 21.9647 119.1 21.3145C118.701 20.6433 118.502 19.9092 118.502 19.1122V5.20616C118.502 4.40913 118.701 3.68552 119.1 3.03531C119.498 2.36414 120.023 1.82929 120.673 1.43078C121.344 1.03226 122.078 0.833008 122.875 0.833008H141.091V5.01739H123.756C123.42 5.01739 123.148 5.11178 122.938 5.30054C122.749 5.48931 122.655 5.76198 122.655 6.11854V18.1998C122.655 18.5354 122.749 18.808 122.938 19.0178C123.148 19.2065 123.42 19.3009 123.756 19.3009H141.091V23.4853H122.875Z" fill="white"/>
<path d="M96.7579 23.4853C95.9609 23.4853 95.2268 23.286 94.5556 22.8875C93.9054 22.489 93.381 21.9647 92.9825 21.3145C92.584 20.6433 92.3848 19.9092 92.3848 19.1122V5.20616C92.3848 4.40913 92.584 3.68552 92.9825 3.03531C93.381 2.36414 93.9054 1.82929 94.5556 1.43078C95.2268 1.03226 95.9609 0.833008 96.7579 0.833008H110.664C111.461 0.833008 112.185 1.03226 112.835 1.43078C113.506 1.82929 114.041 2.36414 114.439 3.03531C114.838 3.68552 115.037 4.40913 115.037 5.20616V19.1122C115.037 19.9092 114.838 20.6433 114.439 21.3145C114.041 21.9647 113.506 22.489 112.835 22.8875C112.185 23.286 111.461 23.4853 110.664 23.4853H96.7579ZM96.9152 19.3009H110.444C110.549 19.3009 110.643 19.2695 110.727 19.2065C110.811 19.1226 110.853 19.0283 110.853 18.9234V5.39493C110.853 5.29006 110.811 5.20616 110.727 5.14324C110.643 5.05934 110.549 5.01739 110.444 5.01739H96.9152C96.8104 5.01739 96.716 5.05934 96.6321 5.14324C96.5692 5.20616 96.5377 5.29006 96.5377 5.39493V18.9234C96.5377 19.0283 96.5692 19.1226 96.6321 19.2065C96.716 19.2695 96.8104 19.3009 96.9152 19.3009Z" fill="white"/>
<path d="M76.6921 23.4853V5.01739H67.4424V0.833008H90.0947V5.01739H80.8765V23.4853H76.6921Z" fill="white"/>
<path d="M46.8605 23.4853C46.0634 23.4853 45.3293 23.286 44.6582 22.8875C44.0079 22.489 43.4836 21.9647 43.0851 21.3145C42.6866 20.6433 42.4873 19.9092 42.4873 19.1122V17.3818H46.6402V18.9234C46.6402 19.0283 46.6717 19.1226 46.7346 19.2065C46.8185 19.2695 46.9129 19.3009 47.0178 19.3009H60.5777C60.6825 19.3009 60.7664 19.2695 60.8294 19.2065C60.9133 19.1226 60.9552 19.0283 60.9552 18.9234V14.6132C60.9552 14.5083 60.9133 14.4244 60.8294 14.3615C60.7664 14.2985 60.6825 14.2671 60.5777 14.2671H46.8605C46.0634 14.2671 45.3293 14.0678 44.6582 13.6693C44.0079 13.2708 43.4836 12.7464 43.0851 12.0962C42.6866 11.4251 42.4873 10.6805 42.4873 9.86246V5.20616C42.4873 4.40913 42.6866 3.68552 43.0851 3.03531C43.4836 2.36414 44.0079 1.82929 44.6582 1.43078C45.3293 1.03226 46.0634 0.833008 46.8605 0.833008H60.7664C61.5635 0.833008 62.2871 1.03226 62.9373 1.43078C63.6085 1.82929 64.1433 2.36414 64.5418 3.03531C64.9403 3.68552 65.1396 4.40913 65.1396 5.20616V6.93654H60.9552V5.39493C60.9552 5.29006 60.9133 5.20616 60.8294 5.14324C60.7664 5.05934 60.6825 5.01739 60.5777 5.01739H47.0178C46.9129 5.01739 46.8185 5.05934 46.7346 5.14324C46.6717 5.20616 46.6402 5.29006 46.6402 5.39493V9.70516C46.6402 9.81003 46.6717 9.89393 46.7346 9.95685C46.8185 10.0198 46.9129 10.0512 47.0178 10.0512H60.7664C61.5635 10.0512 62.2871 10.2505 62.9373 10.649C63.6085 11.0475 64.1433 11.5824 64.5418 12.2535C64.9403 12.9037 65.1396 13.6378 65.1396 14.4558V19.1122C65.1396 19.9092 64.9403 20.6433 64.5418 21.3145C64.1433 21.9647 63.6085 22.489 62.9373 22.8875C62.2871 23.286 61.5635 23.4853 60.7664 23.4853H46.8605Z" fill="white"/>
<path d="M25.7969 23.4853V0.833008H29.9183V23.4853H25.7969Z" fill="white"/>
<path d="M0 23.4853V5.20616C0 4.40913 0.199256 3.68552 0.597769 3.03531C0.996281 2.36414 1.52064 1.82929 2.17084 1.43078C2.84202 1.03226 3.57613 0.833008 4.37315 0.833008H18.2477C19.0447 0.833008 19.7788 1.03226 20.45 1.43078C21.1212 1.82929 21.656 2.36414 22.0545 3.03531C22.453 3.68552 22.6523 4.40913 22.6523 5.20616V23.4853H18.4679V15.8716H4.15292V23.4853H0ZM4.15292 11.7187H18.4679V5.39493C18.4679 5.29006 18.426 5.20616 18.3421 5.14324C18.2582 5.05934 18.1638 5.01739 18.0589 5.01739H4.53046C4.42559 5.01739 4.3312 5.05934 4.2473 5.14324C4.18438 5.20616 4.15292 5.29006 4.15292 5.39493V11.7187Z" fill="white"/>
</svg>
