<svg width="44" height="202" viewBox="0 0 44 202" fill="none" xmlns="http://www.w3.org/2000/svg">
<path d="M43.285 3.57199C43.4131 3.26609 43.269 2.91428 42.9631 2.78621L37.9781 0.699097C37.6722 0.571022 37.3204 0.715176 37.1924 1.02108C37.0643 1.32698 37.2084 1.67878 37.5143 1.80686L41.9454 3.66207L40.0902 8.0931C39.9621 8.399 40.1062 8.75081 40.4121 8.87889C40.718 9.00696 41.0698 8.86281 41.1979 8.55691L43.285 3.57199ZM1.69922 20.1532L1.47155 19.5975L0.636545 19.9397L1.27462 20.5778L1.69922 20.1532ZM1.69922 177.43L1.21482 177.075L0.808464 177.63L1.41285 177.958L1.69922 177.43ZM42.9019 200.269C43.2198 200.174 43.4011 199.84 43.3068 199.522L41.7705 194.341C41.6762 194.023 41.342 193.842 41.024 193.936C40.7061 194.03 40.5248 194.364 40.6191 194.682L41.9847 199.288L37.3792 200.654C37.0613 200.748 36.88 201.082 36.9743 201.4C37.0685 201.718 37.4027 201.899 37.7206 201.805L42.9019 200.269ZM42.5035 2.78446L39.939 3.83527L40.3943 4.94654L42.9588 3.89572L42.5035 2.78446ZM34.81 5.93691L29.681 8.03855L30.1363 9.14981L35.2653 7.04817L34.81 5.93691ZM24.552 10.1402L19.423 12.2418L19.8784 13.3531L25.0074 11.2514L24.552 10.1402ZM14.294 14.3435L9.16503 16.4451L9.62038 17.5563L14.7494 15.4547L14.294 14.3435ZM4.03604 18.5467L1.47155 19.5975L1.92689 20.7088L4.49139 19.658L4.03604 18.5467ZM1.27462 20.5778C1.87878 21.1819 2.52245 21.9047 3.1974 22.7419L4.13236 21.9882C3.43607 21.1245 2.76389 20.3687 2.12381 19.7286L1.27462 20.5778ZM6.61858 27.583C7.59706 29.1287 8.60198 30.8494 9.61495 32.7319L10.6725 32.1629C9.64735 30.2577 8.62824 28.5124 7.63329 26.9407L6.61858 27.583ZM12.3046 38.0884C13.1119 39.8085 13.9138 41.6233 14.7009 43.5261L15.8106 43.0671C15.0165 41.1473 14.2072 39.3154 13.3918 37.5782L12.3046 38.0884ZM16.8668 49.1006C17.5319 50.9258 18.1786 52.8147 18.8005 54.7627L19.9445 54.3975C19.3177 52.434 18.6658 50.5297 17.9951 48.6894L16.8668 49.1006ZM20.5018 60.4767C21.023 62.3604 21.5182 64.2898 21.9824 66.2613L23.1514 65.986C22.6835 63.9993 22.1845 62.0549 21.6593 60.1565L20.5018 60.4767ZM23.2394 72.1024C23.6157 74.0315 23.9604 75.9947 24.2693 77.989L25.4561 77.8051C25.1447 75.7952 24.7974 73.8166 24.4182 71.8725L23.2394 72.1024ZM25.0676 83.911C25.2921 85.869 25.4805 87.8526 25.6291 89.859L26.8268 89.7703C26.6769 87.7475 26.4871 85.7478 26.2607 83.7741L25.0676 83.911ZM25.9483 95.8236C26.0131 97.7961 26.0377 99.7874 26.0192 101.795L27.2201 101.806C27.2388 99.7813 27.2139 97.7732 27.1486 95.7842L25.9483 95.8236ZM25.836 107.763C25.7328 109.735 25.5862 111.72 25.3932 113.716L26.5886 113.831C26.7832 111.817 26.9312 109.815 27.0353 107.826L25.836 107.763ZM24.686 119.642C24.4079 121.596 24.0836 123.559 23.7105 125.529L24.8905 125.752C25.2671 123.764 25.5943 121.783 25.875 119.811L24.686 119.642ZM22.4641 131.363C22.0069 133.283 21.5015 135.206 20.9454 137.133L22.0992 137.466C22.6606 135.521 23.1708 133.579 23.6323 131.642L22.4641 131.363ZM19.1549 142.824C18.5185 144.69 17.8325 146.557 17.0947 148.424L18.2115 148.865C18.9564 146.981 19.649 145.096 20.2916 143.211L19.1549 142.824ZM14.7683 153.921C13.9566 155.718 13.0948 157.514 12.1809 159.305L13.2507 159.851C14.1733 158.042 15.0434 156.23 15.8628 154.415L14.7683 153.921ZM9.34073 164.563C8.36707 166.269 7.34398 167.97 6.26978 169.666L7.28423 170.308C8.36832 168.597 9.40091 166.88 10.3837 165.159L9.34073 164.563ZM2.96704 174.626C2.39551 175.444 1.8115 176.261 1.21482 177.075L2.18362 177.785C2.78559 176.963 3.3748 176.139 3.95147 175.314L2.96704 174.626ZM1.41285 177.958L3.97735 179.349L4.55008 178.294L1.98558 176.902L1.41285 177.958ZM9.10634 182.132L14.2353 184.915L14.8081 183.859L9.67907 181.076L9.10634 182.132ZM19.3643 187.698L24.4933 190.481L25.066 189.425L19.9371 186.642L19.3643 187.698ZM29.6223 193.263L34.7513 196.046L35.324 194.991L30.195 192.208L29.6223 193.263ZM39.8803 198.829L42.4448 200.221L43.0175 199.165L40.453 197.774L39.8803 198.829Z" fill="white" fill-opacity="0.48"/>
</svg>
