<svg width="43" height="202" viewBox="0 0 43 202" fill="none" xmlns="http://www.w3.org/2000/svg">
<path d="M0.113407 3.57199C-0.0146675 3.26609 0.129486 2.91428 0.435387 2.78621L5.4203 0.699097C5.7262 0.571022 6.07801 0.715176 6.20609 1.02108C6.33416 1.32698 6.19001 1.67878 5.88411 1.80686L1.45307 3.66207L3.30828 8.0931C3.43636 8.399 3.2922 8.75081 2.9863 8.87889C2.6804 9.00696 2.32859 8.86281 2.20052 8.55691L0.113407 3.57199ZM41.6992 20.1532L41.9269 19.5975L42.7619 19.9397L42.1238 20.5778L41.6992 20.1532ZM41.6992 177.43L42.1836 177.075L42.59 177.63L41.9856 177.958L41.6992 177.43ZM0.496578 200.269C0.178635 200.174 -0.00268173 199.84 0.0915985 199.522L1.62799 194.341C1.72227 194.023 2.05644 193.842 2.37439 193.936C2.69233 194.03 2.87365 194.364 2.77937 194.682L1.41369 199.288L6.01921 200.654C6.33715 200.748 6.51847 201.082 6.42419 201.4C6.32991 201.718 5.99573 201.899 5.67779 201.805L0.496578 200.269ZM0.894962 2.78446L3.45946 3.83527L3.00411 4.94654L0.439613 3.89572L0.894962 2.78446ZM8.58845 5.93691L13.7174 8.03855L13.2621 9.14981L8.1331 7.04817L8.58845 5.93691ZM18.8464 10.1402L23.9754 12.2418L23.5201 13.3531L18.3911 11.2514L18.8464 10.1402ZM29.1044 14.3435L34.2334 16.4451L33.7781 17.5563L28.6491 15.4547L29.1044 14.3435ZM39.3624 18.5467L41.9269 19.5975L41.4715 20.7088L38.907 19.658L39.3624 18.5467ZM42.1238 20.5778C41.5197 21.1819 40.876 21.9047 40.201 22.7419L39.2661 21.9882C39.9624 21.1245 40.6345 20.3687 41.2746 19.7286L42.1238 20.5778ZM36.7799 27.583C35.8014 29.1287 34.7965 30.8494 33.7835 32.7319L32.7259 32.1629C33.7511 30.2577 34.7702 28.5124 35.7651 26.9407L36.7799 27.583ZM31.0938 38.0884C30.2865 39.8085 29.4847 41.6233 28.6976 43.5261L27.5878 43.0671C28.3819 41.1473 29.1913 39.3154 30.0067 37.5782L31.0938 38.0884ZM26.5317 49.1006C25.8665 50.9258 25.2198 52.8147 24.598 54.7627L23.4539 54.3975C24.0807 52.434 24.7327 50.5297 25.4033 48.6894L26.5317 49.1006ZM22.8966 60.4767C22.3754 62.3604 21.8803 64.2898 21.416 66.2613L20.2471 65.986C20.7149 63.9993 21.2139 62.0549 21.7391 60.1565L22.8966 60.4767ZM20.159 72.1024C19.7827 74.0315 19.4381 75.9947 19.1291 77.989L17.9423 77.8051C18.2537 75.7952 18.6011 73.8166 18.9803 71.8725L20.159 72.1024ZM18.3308 83.911C18.1063 85.869 17.9179 87.8526 17.7693 89.859L16.5717 89.7703C16.7215 87.7475 16.9114 85.7478 17.1377 83.7741L18.3308 83.911ZM17.4501 95.8236C17.3854 97.7961 17.3607 99.7874 17.3792 101.795L16.1784 101.806C16.1596 99.7813 16.1846 97.7732 16.2499 95.7842L17.4501 95.8236ZM17.5624 107.763C17.6656 109.735 17.8123 111.72 18.0052 113.716L16.8098 113.831C16.6152 111.817 16.4673 109.815 16.3631 107.826L17.5624 107.763ZM18.7124 119.642C18.9905 121.596 19.3148 123.559 19.6879 125.529L18.5079 125.752C18.1314 123.764 17.8041 121.783 17.5234 119.811L18.7124 119.642ZM20.9344 131.363C21.3915 133.283 21.897 135.206 22.453 137.133L21.2992 137.466C20.7378 135.521 20.2276 133.579 19.7661 131.642L20.9344 131.363ZM24.2435 142.824C24.88 144.69 25.566 146.557 26.3037 148.424L25.1869 148.865C24.442 146.981 23.7494 145.096 23.1069 143.211L24.2435 142.824ZM28.6301 153.921C29.4418 155.718 30.3036 157.514 31.2175 159.305L30.1477 159.851C29.2251 158.042 28.3551 156.23 27.5356 154.415L28.6301 153.921ZM34.0577 164.563C35.0314 166.269 36.0545 167.97 37.1287 169.666L36.1142 170.308C35.0301 168.597 33.9975 166.88 33.0147 165.159L34.0577 164.563ZM40.4314 174.626C41.0029 175.444 41.5869 176.261 42.1836 177.075L41.2148 177.785C40.6129 176.963 40.0236 176.139 39.447 175.314L40.4314 174.626ZM41.9856 177.958L39.4211 179.349L38.8484 178.294L41.4129 176.902L41.9856 177.958ZM34.2921 182.132L29.1631 184.915L28.5904 183.859L33.7194 181.076L34.2921 182.132ZM24.0341 187.698L18.9051 190.481L18.3324 189.425L23.4614 186.642L24.0341 187.698ZM13.7761 193.263L8.64714 196.046L8.07441 194.991L13.2034 192.208L13.7761 193.263ZM3.51815 198.829L0.953651 200.221L0.380924 199.165L2.94542 197.774L3.51815 198.829Z" fill="white" fill-opacity="0.48"/>
</svg>
