<svg width="73" height="73" viewBox="0 0 73 73" fill="none" xmlns="http://www.w3.org/2000/svg">
<rect width="72.0561" height="72.0561" fill="#98BD42" fill-opacity="0.1"/>
<path fill-rule="evenodd" clip-rule="evenodd" d="M30.9416 21.2055C30.8639 21.519 30.8341 22.5035 30.8753 23.393L30.95 25.0103H36.5H42.05L42.1247 23.393C42.1659 22.5035 42.1361 21.519 42.0584 21.2055L41.9173 20.6353H36.5H31.0827L30.9416 21.2055ZM18.5113 26.294C17.7504 27.2743 17.8451 28.5625 18.7834 29.998C20.1758 32.1288 24.6834 35.5303 27.7401 36.757C29.5462 37.4818 33.7213 38.4558 34.0745 38.2345C34.1875 38.1638 34.28 37.8238 34.28 37.479C34.28 35.9678 35.7437 35.0935 37.3653 35.636C38.31 35.952 38.72 36.5098 38.72 37.479C38.72 37.8238 38.8125 38.1638 38.9255 38.2345C39.2787 38.4558 43.4538 37.4818 45.2599 36.757C48.3166 35.5303 52.8242 32.1288 54.2166 29.998C55.1549 28.5625 55.2496 27.2743 54.4887 26.294L53.9776 25.6353H36.5H19.0224L18.5113 26.294ZM18 38.7193V46.6353H36.5H55V38.7193V30.8033L53.335 32.421C50.5191 35.157 47.2327 37.257 44.27 38.214C43.3055 38.5255 39.3021 39.3853 38.8162 39.3853C38.7632 39.3853 38.72 39.8833 38.72 40.492C38.72 41.8625 37.9196 42.6353 36.5 42.6353C35.0804 42.6353 34.28 41.8625 34.28 40.492C34.28 39.8833 34.2368 39.3853 34.1838 39.3853C33.6979 39.3853 29.6945 38.5255 28.73 38.214C25.7673 37.257 22.4809 35.157 19.665 32.421L18 30.8033V38.7193ZM18 49.0215C18 50.1603 18.1083 50.5178 18.6056 51.0215L19.2109 51.6353H36.5H53.7891L54.3944 51.0215C54.8917 50.5178 55 50.1603 55 49.0215V47.6353H36.5H18V49.0215Z" fill="#98BD42"/>
</svg>
